<?xml version="1.0" encoding="iso-8859-1"?>
<!-- Generator: Adobe Illustrator 19.0.0, SVG Export Plug-In . SVG Version: 6.00 Build 0)  -->
<svg version="1.1" id="Layer_1" xmlns="http://www.w3.org/2000/svg" xmlns:xlink="http://www.w3.org/1999/xlink" x="0px" y="0px"
	 viewBox="0 0 512 512" style="enable-background:new 0 0 512 512;" xml:space="preserve">
<circle style="fill:#324A5E;" cx="256" cy="256" r="256"/>
<path style="fill:#2B3B4E;" d="M169.805,322.37l-37.926,37.926l150.373,150.373c117.331-11.952,211.203-103.143,227.29-219.201
	L369.778,151.704L207.401,189.3l-37.597-37.597l-37.926,37.926l74.1,74.1v9.481l-36.174-36.174l-37.926,37.926l74.1,74.1v9.481
	L169.805,322.37z"/>
<g>
	<rect x="199.111" y="151.704" style="fill:#B5F1F4;" width="170.667" height="37.926"/>
	<rect x="199.111" y="237.037" style="fill:#B5F1F4;" width="170.667" height="37.926"/>
	<rect x="199.111" y="322.37" style="fill:#B5F1F4;" width="170.667" height="37.926"/>
</g>
<g>
	<rect x="255.431" y="151.704" style="fill:#84DBFF;" width="114.347" height="37.926"/>
	<rect x="255.431" y="237.037" style="fill:#84DBFF;" width="114.347" height="37.926"/>
	<rect x="255.431" y="322.37" style="fill:#84DBFF;" width="114.347" height="37.926"/>
</g>
<g>
	<rect x="131.879" y="151.704" style="fill:#B5F1F4;" width="37.926" height="37.926"/>
	<rect x="131.879" y="237.037" style="fill:#B5F1F4;" width="37.926" height="37.926"/>
</g>
<rect x="131.879" y="322.37" style="fill:#FFD15D;" width="37.926" height="37.926"/>
<g>
</g>
<g>
</g>
<g>
</g>
<g>
</g>
<g>
</g>
<g>
</g>
<g>
</g>
<g>
</g>
<g>
</g>
<g>
</g>
<g>
</g>
<g>
</g>
<g>
</g>
<g>
</g>
<g>
</g>
</svg>
